<?xml version="1.0" encoding="iso-8859-1"?>
<!-- Generator: Adobe Illustrator 23.0.2, SVG Export Plug-In . SVG Version: 6.00 Build 0)  -->
<svg version="1.1" id="Camada_1" xmlns="http://www.w3.org/2000/svg" xmlns:xlink="http://www.w3.org/1999/xlink" x="0px" y="0px"
	 viewBox="0 0 30 30" style="enable-background:new 0 0 30 30;" xml:space="preserve">
<circle style="fill-rule:evenodd;clip-rule:evenodd;fill:#FFFFFF;" cx="14.764" cy="15.13" r="15"/>
<g>
	<linearGradient id="SVGID_1_" gradientUnits="userSpaceOnUse" x1="17.35" y1="7.6743" x2="17.4117" y2="5.6166">
		<stop  offset="0" style="stop-color:#767777"/>
		<stop  offset="0.489" style="stop-color:#6D6E6E"/>
		<stop  offset="1" style="stop-color:#5E6060"/>
	</linearGradient>
	<path style="fill-rule:evenodd;clip-rule:evenodd;fill:url(#SVGID_1_);" d="M18.395,4.789v2.967l-2.006-2.142V4.788L18.395,4.789z"
		/>
	<linearGradient id="SVGID_2_" gradientUnits="userSpaceOnUse" x1="16.5755" y1="25.0611" x2="11.1033" y2="25.0611">
		<stop  offset="0.1342" style="stop-color:#656666"/>
		<stop  offset="0.7909" style="stop-color:#767777"/>
	</linearGradient>
	<path style="fill-rule:evenodd;clip-rule:evenodd;fill:url(#SVGID_2_);" d="M12.72,26.362c-0.591-0.197-1.174-0.686-1.412-1.163
		c0.238,0.045,0.478,0.108,0.722,0.134c0.812,0.086,1.513-0.162,2.086-0.731c0.494-0.491,1.081-0.802,1.766-0.928
		c0.554-0.102,0.924-0.094,1.251,0c-0.102,0.065-0.684,0.401-0.955,0.835c-0.277,0.512-0.745,1.37-1.382,1.771
		C14.658,26.434,13.698,26.692,12.72,26.362z"/>
	<linearGradient id="SVGID_3_" gradientUnits="userSpaceOnUse" x1="18.0099" y1="4.6955" x2="20.9178" y2="24.4102">
		<stop  offset="0" style="stop-color:#5E6060"/>
		<stop  offset="0.2781" style="stop-color:#6D6E6E"/>
		<stop  offset="0.5531" style="stop-color:#767777"/>
		<stop  offset="0.7716" style="stop-color:#6D6E6E"/>
		<stop  offset="1" style="stop-color:#5E6060"/>
	</linearGradient>
	<path style="fill-rule:evenodd;clip-rule:evenodd;fill:url(#SVGID_3_);" d="M24.236,14.208c-0.326,0-0.603,0-0.883,0
		c0.971,3.243,0.472,6.197-1.775,8.783c-1.382,1.591-3.165,2.529-5.267,2.886c1.195-0.509,1.918-1.384,2.189-2.686
		c0.475-0.28,0.962-0.648,1.394-1.082c1.17-1.181,1.875-2.583,2.041-4.227c0.22-2.172-0.465-4.044-1.955-5.654
		c-1.103-1.191-2.177-2.407-3.264-3.612c-0.594-0.66-1.188-1.319-1.782-1.98c-0.43-0.477-0.859-0.954-1.288-1.433
		c-0.025-0.028-0.048-0.057-0.084-0.1c0.408-0.454,0.815-0.905,1.23-1.366C17.935,7.221,21.069,10.697,24.236,14.208z"/>
	<linearGradient id="SVGID_4_" gradientUnits="userSpaceOnUse" x1="6.6355" y1="16.1109" x2="13.5356" y2="24.5882">
		<stop  offset="0" style="stop-color:#FF6400"/>
		<stop  offset="0.4916" style="stop-color:#FF4500"/>
		<stop  offset="0.8101" style="stop-color:#FF5200"/>
		<stop  offset="1" style="stop-color:#FF6400"/>
	</linearGradient>
	<path style="fill-rule:evenodd;clip-rule:evenodd;fill:url(#SVGID_4_);" d="M12.476,23.801c0,0-0.075,0.097-0.128,0.202
		c-0.044,0.088-0.107,0.275-0.122,0.526c0.468,0.024,0.894-0.082,1.245-0.374c0.518-0.431,1.111-0.72,1.759-0.871
		c0.571-0.132,1.258,0.087,1.773,0.355c-1.11-0.103-2.108,0.213-2.953,1.026c-0.888,0.904-2.098,0.804-3.167,0.397
		c-1.003-0.383-1.836-1.032-2.586-1.778c-1.318-1.315-2.138-2.886-2.463-4.701c-0.262-1.467-0.115-3.037,0.358-4.454
		C6.214,14.136,5.775,23.131,12.476,23.801"/>
	<g>
		<path style="fill-rule:evenodd;clip-rule:evenodd;fill:#FF4500;" d="M11.781,17.279c0.943,0,1.867,0,2.805,0
			c0,0.919,0,1.835,0,2.766c-0.927,0-1.862,0-2.805,0C11.781,19.125,11.781,18.21,11.781,17.279z"/>
		<path style="fill-rule:evenodd;clip-rule:evenodd;fill:#FF4500;" d="M14.594,14.266c0,0.913,0,1.822,0,2.744
			c-0.936,0-1.866,0-2.808,0c0-0.91,0-1.821,0-2.744C12.717,14.266,13.651,14.266,14.594,14.266z"/>
		<path style="fill-rule:evenodd;clip-rule:evenodd;fill:#FF4500;" d="M14.998,20.046c0-0.925,0-1.838,0-2.76
			c0.932,0,1.859,0,2.799,0c0,0.916,0,1.832,0,2.76C16.872,20.046,15.941,20.046,14.998,20.046z"/>
		<path style="fill-rule:evenodd;clip-rule:evenodd;fill:#FF4500;" d="M17.8,17.014c-0.933,0-1.859,0-2.792,0
			c0-0.921,0-1.83,0-2.751c0.93,0,1.855,0,2.792,0C17.8,15.173,17.8,16.084,17.8,17.014z"/>
	</g>
	<linearGradient id="SVGID_5_" gradientUnits="userSpaceOnUse" x1="15.6849" y1="26.0039" x2="17.5085" y2="24.0817">
		<stop  offset="0" style="stop-color:#FF5200"/>
		<stop  offset="1" style="stop-color:#FF4500"/>
	</linearGradient>
	<path style="fill-rule:evenodd;clip-rule:evenodd;fill:url(#SVGID_5_);" d="M14.614,26.387c0.36-0.173,0.93-0.703,1.295-1.508
		c0.178-0.385,0.575-0.803,0.927-1.037c0.295-0.194,1.205-0.626,1.664-0.626c-0.061,0.334-0.236,0.833-0.392,1.107
		C17.199,26.114,14.614,26.387,14.614,26.387z"/>
	<linearGradient id="SVGID_6_" gradientUnits="userSpaceOnUse" x1="12.2235" y1="23.797" x2="15.2735" y2="23.797">
		<stop  offset="0" style="stop-color:#5E6060"/>
		<stop  offset="0.2781" style="stop-color:#6D6E6E"/>
		<stop  offset="0.5531" style="stop-color:#767777"/>
		<stop  offset="0.7716" style="stop-color:#6D6E6E"/>
		<stop  offset="1" style="stop-color:#5E6060"/>
	</linearGradient>
	<path style="fill-rule:evenodd;clip-rule:evenodd;fill:url(#SVGID_6_);" d="M15.274,23.274c-0.445,0.07-1.299,0.502-1.633,0.747
		c-0.473,0.436-0.95,0.531-1.414,0.508c-0.034-0.434,0.292-0.944,0.768-1.192C13.597,22.967,14.611,22.994,15.274,23.274z"/>
	<path style="fill-rule:evenodd;clip-rule:evenodd;fill:#767777;" d="M14.797,26.279"/>
	<path style="fill-rule:evenodd;clip-rule:evenodd;fill:#767777;" d="M14.433,26.459"/>
	<linearGradient id="SVGID_7_" gradientUnits="userSpaceOnUse" x1="10.48" y1="4.9771" x2="8.755" y2="24.4946">
		<stop  offset="0" style="stop-color:#FF6400"/>
		<stop  offset="0.4916" style="stop-color:#FF4500"/>
		<stop  offset="0.8101" style="stop-color:#FF5200"/>
		<stop  offset="1" style="stop-color:#FF6400"/>
	</linearGradient>
	<path style="fill-rule:evenodd;clip-rule:evenodd;fill:url(#SVGID_7_);" d="M12.476,23.801c0,0-6.226,0.097-6.283-9.673
		c0,0-0.575,0-0.901,0c2.721-3.023,8.271-9.025,8.271-9.025l1.17,1.309c0,0-3.598,3.995-5.103,5.638
		c-0.756,0.825-1.39,1.717-1.721,2.783c-0.78,2.513-0.326,4.799,1.382,6.825C10.448,23.128,12.476,23.801,12.476,23.801"/>
</g>
</svg>
